#!OML:ASF X:\für Bonn\!DataBase\2005_08_10_Bjorn_Final\c3d\bjorn.ASF
:FULLY-SPECIFIED
:DEGREES
130
root 0.501208 17.037 2.84666 -166.53 -5.79713 -184.05
lowerback 15.5248 0.367621 7.83219
upperback 10.1615 -0.296247 1.50335
thorax 2.23933 -0.518661 -2.80518
lowerneck -19.2574 0.739717 2.68726
upperneck -1.17178 -0.0682012 -5.99769
head 2.67297 -0.638441 -2.305
rclavicle -7.15625e-015 1.43125e-014
rhumerus 71.5798 -0.140297 -67.3727
rradius 13.3651
rwrist 37.479
rhand -15.0964 8.4703
rfingers 7.12502
rthumb 11.0718 -21.2177
lclavicle -7.15625e-015 1.43125e-014
lhumerus 73.8695 -9.52256 82.0546
lradius 8.70917
lwrist -56.3271
lhand -24.4216 -6.01611
lfingers 7.12502
lthumb 2.07014 23.9536
rfemur 131 -171.139 -167.295
rtibia 74.3741
rfoot -30.3444 3.6948
rtoes -36.842
lfemur -52.4483 0.939014 -22.8873
ltibia 77.0371
lfoot -19.3557 -4.32979
ltoes -25.1689
131
root 0.506012 17.277 2.76928 -166.661 -6.02076 -184.09
lowerback 14.6745 0.35034 7.79101
upperback 10.0681 -0.332685 1.51299
thorax 2.57667 -0.502926 -2.77229
lowerneck -19.007 0.644608 2.7237
upperneck -0.576803 -0.0979719 -6.05895
head 2.81752 -0.627335 -2.33194
rclavicle -9.54166e-015 -2.38542e-014
rhumerus 71.1968 0.077974 -67.4636
rradius 13.331
rwrist 37.527
rhand -15.041 8.28835
rfingers 7.12502
rthumb 11.1252 -21.3967
lclavicle -9.54166e-015 -2.38542e-014
lhumerus 73.2314 -9.70022 82.3262
lradius 8.79416
lwrist -55.8845
lhand -24.733 -5.83899
lfingers 7.12502
lthumb 1.76945 24.1334
rfemur 133.089 -171.27 -167.325
rtibia 71.4431
rfoot -29.3205 3.71727
rtoes -36.144
lfemur -50.4237 0.992117 -22.8534
ltibia 74.1539
lfoot -18.5303 -4.76613
ltoes -24.3577
132
root 0.512722 17.5128 2.6903 -166.809 -6.29415 -184.11
lowerback 13.7212 0.337791 7.73895
upperback 10.0022 -0.378254 1.53244
thorax 3.00113 -0.490198 -2.72361
lowerneck -18.6571 0.55002 2.81451
upperneck -0.0545623 -0.143531 -6.12823
head 2.92417 -0.623753 -2.37024
rclavicle -2.3059e-014 -3.18055e-014
rhumerus 70.7668 0.229331 -67.8271
rradius 13.2879
rwrist 37.6997
rhand -15.0206 8.22695
rfingers 7.12502
rthumb 11.1449 -21.4571
lclavicle -2.3059e-014 -3.18055e-014
lhumerus 72.5795 -9.93185 82.5886
lradius 8.94019
lwrist -55.5467
lhand -25.0276 -5.65464
lfingers 7.12502
lthumb 1.48494 24.3199
rfemur 135.191 -171.383 -167.335
rtibia 68.5342
rfoot -28.1609 3.77722
rtoes -35.3584
lfemur -48.4153 1.03349 -22.7777
ltibia 71.2874
lfoot -17.5437 -5.24592
ltoes -23.6042
133
root 0.519984 17.747 2.61099 -166.981 -6.57926 -184.153
lowerback 12.8138 0.310326 7.60538
upperback 9.90907 -0.444304 1.58889
thorax 3.37131 -0.495768 -2.58888
lowerneck -18.3022 0.439062 2.77656
upperneck 0.529712 -0.182341 -6.15484
head 3.04865 -0.616112 -2.37442
rclavicle 1.11319e-014 4.92986e-014
rhumerus 70.2976 0.413467 -68.3453
rradius 13.2778
rwrist 38.0787
rhand -14.8892 8.13323
rfingers 7.12502
rthumb 11.2717 -21.5439
lclavicle 1.11319e-014 4.92986e-014
lhumerus 71.8539 -10.1041 82.9098
lradius 9.11899
lwrist -55.2178
lhand -25.2903 -5.63142
lfingers 7.12502
lthumb 1.23116 24.3448
rfemur 137.276 -171.436 -167.369
rtibia 65.6951
rfoot -26.8683 3.88449
rtoes -34.3714
lfemur -46.4124 1.10183 -22.7216
ltibia 68.4616
lfoot -16.4446 -5.76549
ltoes -22.9852
134
root 0.52654 17.9736 2.53371 -167.169 -6.81806 -184.183
lowerback 12.004 0.281397 7.53232
upperback 9.78961 -0.491558 1.58852
thorax 3.66738 -0.489291 -2.54939
lowerneck -18.0961 0.323851 2.71736
upperneck 1.23494 -0.224835 -6.11392
head 3.23169 -0.61144 -2.35663
rclavicle 6.2816e-014 5.88403e-014
rhumerus 69.8123 0.513592 -69.1331
rradius 13.2436
rwrist 38.6131
rhand -14.7756 8.11994
rfingers 7.12502
rthumb 11.3812 -21.5512
lclavicle 6.2816e-014 5.88403e-014
lhumerus 71.1379 -10.2815 83.1626
lradius 9.29769
lwrist -55.033
lhand -25.5005 -5.7093
lfingers 7.12502
lthumb 1.02821 24.268
rfemur 139.289 -171.533 -167.419
rtibia 62.9618
rfoot -25.446 4.01419
rtoes -33.4097
lfemur -44.4707 1.23481 -22.6627
ltibia 65.7289
lfoot -15.1601 -6.33383
ltoes -22.2897
135
root 0.53211 18.1955 2.46128 -167.369 -6.99712 -184.21
lowerback 11.2554 0.268469 7.45305
upperback 9.62613 -0.502002 1.56833
thorax 3.88844 -0.465148 -2.52976
lowerneck -17.7102 0.194123 2.65552
upperneck 1.91606 -0.285266 -6.03767
head 3.3792 -0.609944 -2.32718
rclavicle 4.77083e-014 2.54444e-014
rhumerus 69.3205 0.424596 -70.575
rradius 13.1285
rwrist 39.8378
rhand -14.613 8.27616
rfingers 7.12502
rthumb 11.538 -21.3863
lclavicle 4.77083e-014 2.54444e-014
lhumerus 70.3655 -10.5075 83.4219
lradius 9.49464
lwrist -54.9448
lhand -25.5987 -5.90938
lfingers 7.12502
lthumb 0.933309 24.0683
rfemur 141.15 -171.64 -167.477
rtibia 60.3992
rfoot -23.7856 4.05093
rtoes -32.5264
lfemur -42.6289 1.37713 -22.587
ltibia 63.1089
lfoot -13.6941 -6.86893
ltoes -21.5404
136
root 0.53556 18.4128 2.39287 -167.585 -7.08645 -184.207
lowerback 10.5475 0.270672 7.35178
upperback 9.45761 -0.494059 1.57218
thorax 4.08606 -0.436726 -2.47362
lowerneck -17.1829 0.0739282 2.56991
upperneck 2.49967 -0.337868 -5.98635
head 3.47542 -0.606788 -2.29944
rclavicle 1.27222e-014 4.77083e-015
rhumerus 68.8508 0.579727 -71.1172
rradius 13.1169
rwrist 40.2748
rhand -14.3824 8.35331
rfingers 7.12502
rthumb 11.7603 -21.2965
lclavicle 1.27222e-014 4.77083e-015
lhumerus 69.5791 -10.6351 83.7075
lradius 9.7219
lwrist -54.9312
lhand -25.5811 -6.29711
lfingers 7.12502
lthumb 0.950344 23.6805
rfemur 142.865 -171.805 -167.538
rtibia 58.0048
rfoot -21.9045 4.09663
rtoes -31.6268
lfemur -40.8663 1.58546 -22.4898
ltibia 60.5988
lfoot -11.9954 -7.37546
ltoes -20.6224
